<svg width="555" height="300" viewBox="0 0 555 300" fill="none" xmlns="http://www.w3.org/2000/svg">
<path d="M23.5244 257.622V185.119H89.9142V194.392H32.7954V216.755H78.7091V226.028H32.7954V248.392H89.9142V257.664H23.5244V257.622Z" fill="black"/>
<path d="M109.297 280.49V271.028H145.519C146.465 271.028 147.243 270.713 147.895 270.063C148.526 269.434 148.862 268.636 148.862 267.692V257.622H111.315C109.024 257.622 106.922 257.056 105.008 255.902C103.095 254.769 101.561 253.238 100.426 251.329C99.2903 249.42 98.7017 247.322 98.7017 245.035V199.427H107.994V244.951C107.994 245.895 108.33 246.692 109.003 247.364C109.676 248.035 110.474 248.371 111.42 248.371H145.519C146.465 248.371 147.243 248.035 147.895 247.364C148.526 246.692 148.862 245.895 148.862 244.951V199.427H158.238V267.797C158.238 270.147 157.691 272.287 156.577 274.196C155.463 276.105 153.949 277.636 152.036 278.769C150.123 279.902 147.979 280.49 145.624 280.49H109.297Z" fill="black"/>
<path d="M174.531 255.923C172.618 254.79 171.083 253.259 169.948 251.35C168.813 249.441 168.224 247.343 168.224 245.056V211.825C168.224 209.538 168.791 207.441 169.948 205.531C171.083 203.622 172.618 202.091 174.531 200.958C176.444 199.825 178.546 199.238 180.838 199.238H215.147C217.501 199.238 219.645 199.804 221.559 200.958C223.472 202.091 225.006 203.622 226.141 205.531C227.277 207.441 227.865 209.538 227.865 211.825V233.077H177.495V244.951C177.495 245.895 177.831 246.692 178.504 247.364C179.177 248.035 179.976 248.371 180.922 248.371H227.844V257.643H180.838C178.546 257.622 176.444 257.056 174.531 255.923ZM177.495 224.098H218.363V211.909C218.363 210.965 218.048 210.168 217.396 209.497C216.765 208.825 215.966 208.49 215.02 208.49H180.943C179.997 208.49 179.198 208.825 178.525 209.497C177.852 210.168 177.516 210.965 177.516 211.909V224.098H177.495Z" fill="black"/>
<path d="M278.215 257.622C275.923 257.622 273.821 257.077 271.908 255.965C269.995 254.853 268.481 253.343 267.367 251.434C266.253 249.525 265.706 247.427 265.706 245.14V197.622C265.706 195.336 266.253 193.238 267.367 191.329C268.481 189.42 269.995 187.909 271.908 186.797C273.821 185.685 275.923 185.14 278.215 185.14H325.852C328.144 185.14 330.246 185.685 332.159 186.797C334.072 187.909 335.586 189.42 336.7 191.329C337.814 193.238 338.361 195.336 338.361 197.622V201.147H329.069V197.727C329.069 196.783 328.753 196.007 328.102 195.357C327.471 194.727 326.672 194.392 325.726 194.392H278.299C277.353 194.392 276.575 194.706 275.923 195.357C275.293 195.986 274.956 196.783 274.956 197.727V245.056C274.956 246 275.272 246.776 275.923 247.427C276.554 248.056 277.353 248.392 278.299 248.392H325.726C326.672 248.392 327.45 248.077 328.102 247.427C328.732 246.797 329.069 246 329.069 245.056V228.147H311.41V218.79H338.361V245.182C338.361 247.469 337.814 249.566 336.7 251.476C335.586 253.385 334.072 254.895 332.159 256.007C330.246 257.119 328.144 257.664 325.852 257.664H278.215V257.622Z" fill="black"/>
<path d="M354.758 255.923C352.845 254.79 351.311 253.259 350.176 251.35C349.04 249.441 348.452 247.343 348.452 245.056V211.825C348.452 209.538 349.019 207.441 350.176 205.531C351.311 203.622 352.845 202.091 354.758 200.958C356.672 199.825 358.774 199.238 361.065 199.238H395.374C397.729 199.238 399.873 199.804 401.786 200.958C403.699 202.091 405.234 203.622 406.369 205.531C407.505 207.441 408.093 209.538 408.093 211.825V233.077H357.744V244.951C357.744 245.895 358.08 246.692 358.753 247.364C359.426 248.035 360.224 248.371 361.17 248.371H408.093V257.643H361.065C358.774 257.622 356.672 257.056 354.758 255.923ZM357.723 224.098H398.591V211.909C398.591 210.965 398.276 210.168 397.624 209.497C396.993 208.825 396.194 208.49 395.248 208.49H361.149C360.203 208.49 359.405 208.825 358.732 209.497C358.059 210.168 357.723 210.965 357.723 211.909V224.098Z" fill="black"/>
<path d="M424.176 255.923C422.263 254.79 420.749 253.259 419.635 251.35C418.52 249.441 417.974 247.343 417.974 245.056V180.399H427.266V199.238H452.094V208.511H427.266V244.972C427.266 245.916 427.602 246.713 428.275 247.385C428.948 248.056 429.747 248.392 430.693 248.392H452.094V257.664H430.609C428.233 257.622 426.089 257.056 424.176 255.923Z" fill="black"/>
<path d="M487.895 257.622V185.119H497.187V257.622H487.895Z" fill="black"/>
<path d="M514.384 255.923C512.471 254.79 510.957 253.259 509.843 251.35C508.729 249.441 508.182 247.343 508.182 245.056V180.399H517.474V199.238H542.302V208.511H517.474V244.972C517.474 245.916 517.811 246.713 518.484 247.385C519.156 248.056 519.955 248.392 520.901 248.392H542.302V257.664H520.817C518.441 257.622 516.297 257.056 514.384 255.923Z" fill="black"/>
<path d="M262.784 162.588C300.518 162.588 331.108 132.061 331.108 94.4057C331.108 56.7499 300.518 26.2239 262.784 26.2239C225.05 26.2239 194.46 56.7499 194.46 94.4057C194.46 132.061 225.05 162.588 262.784 162.588Z" fill="#14008F" stroke="black" stroke-width="4" stroke-miterlimit="10"/>
<path d="M262.784 112.238C272.653 112.238 280.653 104.254 280.653 94.4057C280.653 84.5572 272.653 76.5735 262.784 76.5735C252.915 76.5735 244.915 84.5572 244.915 94.4057C244.915 104.254 252.915 112.238 262.784 112.238Z" fill="black" stroke="black" stroke-width="3" stroke-miterlimit="10"/>
<path d="M238.608 71.3288C244.994 71.3288 250.17 66.1628 250.17 59.7903C250.17 53.4178 244.994 48.2518 238.608 48.2518C232.222 48.2518 227.045 53.4178 227.045 59.7903C227.045 66.1628 232.222 71.3288 238.608 71.3288Z" fill="white"/>
<path d="M217.585 98.6015C221.649 98.6015 224.943 95.314 224.943 91.2588C224.943 87.2036 221.649 83.9161 217.585 83.9161C213.522 83.9161 210.227 87.2036 210.227 91.2588C210.227 95.314 213.522 98.6015 217.585 98.6015Z" fill="white"/>
<path d="M257.634 30.6504C213.444 35.4127 169.359 48.2309 130.194 69.4616C127.503 71.0351 120.902 74.9581 118.19 76.5735C120.86 74.7693 127.23 70.5106 129.794 68.7903C146.907 58.1959 165.407 49.07 184.222 41.9791C207.747 33.0421 231.755 26.2658 256.751 22.3008C259.042 21.9442 261.186 23.5176 261.544 25.8043C261.922 28.2379 260.093 30.5036 257.634 30.6504Z" fill="black"/>
<path d="M274.998 157.364C309.097 154.091 343.112 144.923 374.646 131.434C387.092 126 399.053 119.581 410.658 112.469C399.495 120.21 387.806 127.385 375.655 133.553C355.263 143.727 333.799 151.972 311.809 157.972C299.994 161.203 288.201 163.888 275.818 165.692C273.527 166.028 271.382 164.434 271.046 162.147C270.668 159.734 272.518 157.49 274.998 157.364Z" fill="black"/>
</svg>
